<mxfile host="app.diagrams.net" agent="Mozilla/5.0 (Windows NT 10.0; Win64; x64) AppleWebKit/537.36 (KHTML, like Gecko) Chrome/136.0.0.0 Safari/537.36 Edg/136.0.0.0" version="26.2.14">
  <diagram name="Страница — 1" id="-EOzjx5CzQE9VD1uyRhu">
    <mxGraphModel dx="2373" dy="866" grid="1" gridSize="10" guides="1" tooltips="1" connect="1" arrows="1" fold="1" page="1" pageScale="1" pageWidth="827" pageHeight="1169" math="0" shadow="0">
      <root>
        <mxCell id="0" />
        <mxCell id="1" parent="0" />
        <mxCell id="xwWvTB3SmUjanC1Ceygi-1" value="&lt;font style=&quot;font-size: 14px;&quot; face=&quot;Times New Roman&quot;&gt;Студент&lt;/font&gt;" style="rounded=0;whiteSpace=wrap;html=1;fillColor=light-dark(#2BD4D4,var(--ge-dark-color, #121212));" parent="1" vertex="1">
          <mxGeometry x="770" y="10" width="210" height="110" as="geometry" />
        </mxCell>
        <mxCell id="xwWvTB3SmUjanC1Ceygi-12" style="edgeStyle=orthogonalEdgeStyle;rounded=0;orthogonalLoop=1;jettySize=auto;html=1;entryX=0;entryY=0.5;entryDx=0;entryDy=0;" parent="1" source="xwWvTB3SmUjanC1Ceygi-2" target="xwWvTB3SmUjanC1Ceygi-3" edge="1">
          <mxGeometry relative="1" as="geometry" />
        </mxCell>
        <mxCell id="xwWvTB3SmUjanC1Ceygi-2" value="&lt;span style=&quot;font-family: &amp;quot;Times New Roman&amp;quot;; font-size: 14px;&quot;&gt;Направление на пересдачу&lt;/span&gt;" style="rounded=0;whiteSpace=wrap;html=1;fillColor=light-dark(#ADADAD,var(--ge-dark-color, #121212));" parent="1" vertex="1">
          <mxGeometry x="-80" y="360" width="210" height="110" as="geometry" />
        </mxCell>
        <mxCell id="fnJGCV2OGsMbJMiHRyRS-3" style="edgeStyle=orthogonalEdgeStyle;rounded=0;orthogonalLoop=1;jettySize=auto;html=1;" parent="1" source="xwWvTB3SmUjanC1Ceygi-3" target="fnJGCV2OGsMbJMiHRyRS-2" edge="1">
          <mxGeometry relative="1" as="geometry" />
        </mxCell>
        <mxCell id="xwWvTB3SmUjanC1Ceygi-3" value="&lt;span style=&quot;font-family: &amp;quot;Times New Roman&amp;quot;; font-size: 14px;&quot;&gt;Ликвидация академических задолженностей&lt;/span&gt;" style="rounded=0;whiteSpace=wrap;html=1;fillColor=light-dark(#ADADAD,var(--ge-dark-color, #121212));" parent="1" vertex="1">
          <mxGeometry x="340" y="360" width="210" height="110" as="geometry" />
        </mxCell>
        <mxCell id="xwWvTB3SmUjanC1Ceygi-5" value="&lt;span style=&quot;font-family: &amp;quot;Times New Roman&amp;quot;; font-size: 14px;&quot;&gt;Приказ о назначении комиссии по ликвидации задолженностей&lt;/span&gt;" style="rounded=0;whiteSpace=wrap;html=1;fillColor=light-dark(#DBDBDB,var(--ge-dark-color, #121212));" parent="1" vertex="1">
          <mxGeometry x="200" y="10" width="210" height="110" as="geometry" />
        </mxCell>
        <mxCell id="xwWvTB3SmUjanC1Ceygi-6" value="&lt;span style=&quot;color: rgb(0, 0, 0); font-family: &amp;quot;Times New Roman&amp;quot;; font-size: 14px; font-style: normal; font-variant-ligatures: normal; font-variant-caps: normal; font-weight: 400; letter-spacing: normal; orphans: 2; text-indent: 0px; text-transform: none; widows: 2; word-spacing: 0px; -webkit-text-stroke-width: 0px; white-space: normal; background-color: rgb(251, 251, 251); text-decoration-thickness: initial; text-decoration-style: initial; text-decoration-color: initial; float: none; display: inline !important;&quot;&gt;Список студентов&lt;/span&gt;" style="text;whiteSpace=wrap;html=1;align=center;" parent="1" vertex="1">
          <mxGeometry x="-137" y="158" width="160" height="40" as="geometry" />
        </mxCell>
        <mxCell id="xwWvTB3SmUjanC1Ceygi-7" style="edgeStyle=orthogonalEdgeStyle;rounded=0;orthogonalLoop=1;jettySize=auto;html=1;entryX=0.11;entryY=0.018;entryDx=0;entryDy=0;entryPerimeter=0;" parent="1" edge="1">
          <mxGeometry relative="1" as="geometry">
            <mxPoint x="-57" y="189" as="sourcePoint" />
            <mxPoint x="-56.90000000000009" y="359.98" as="targetPoint" />
          </mxGeometry>
        </mxCell>
        <mxCell id="xwWvTB3SmUjanC1Ceygi-10" style="edgeStyle=orthogonalEdgeStyle;rounded=0;orthogonalLoop=1;jettySize=auto;html=1;entryX=0.5;entryY=1;entryDx=0;entryDy=0;" parent="1" source="xwWvTB3SmUjanC1Ceygi-8" target="xwWvTB3SmUjanC1Ceygi-2" edge="1">
          <mxGeometry relative="1" as="geometry" />
        </mxCell>
        <mxCell id="xwWvTB3SmUjanC1Ceygi-8" value="&lt;span style=&quot;font-family: &amp;quot;Times New Roman&amp;quot;; font-size: 14px;&quot;&gt;Наличие академических задолженностей&lt;/span&gt;" style="rounded=0;whiteSpace=wrap;html=1;fillColor=light-dark(#2BD4D4,var(--ge-dark-color, #121212));" parent="1" vertex="1">
          <mxGeometry x="-80" y="580" width="210" height="110" as="geometry" />
        </mxCell>
        <mxCell id="xwWvTB3SmUjanC1Ceygi-9" value="&lt;span style=&quot;font-family: &amp;quot;Times New Roman&amp;quot;; font-size: 14px;&quot;&gt;Отчетная документация по академическим задолженностям&lt;/span&gt;" style="rounded=0;whiteSpace=wrap;html=1;fillColor=light-dark(#2BD4D4,var(--ge-dark-color, #121212));" parent="1" vertex="1">
          <mxGeometry x="785" y="586" width="210" height="110" as="geometry" />
        </mxCell>
        <mxCell id="xwWvTB3SmUjanC1Ceygi-11" style="edgeStyle=orthogonalEdgeStyle;rounded=0;orthogonalLoop=1;jettySize=auto;html=1;entryX=-0.019;entryY=0.409;entryDx=0;entryDy=0;entryPerimeter=0;" parent="1" edge="1">
          <mxGeometry relative="1" as="geometry">
            <mxPoint x="54" y="360" as="sourcePoint" />
            <mxPoint x="200.01000000000022" y="54.99000000000001" as="targetPoint" />
            <Array as="points">
              <mxPoint x="54" y="55" />
            </Array>
          </mxGeometry>
        </mxCell>
        <mxCell id="xwWvTB3SmUjanC1Ceygi-16" value="&lt;div style=&quot;text-align: center;&quot;&gt;&lt;span style=&quot;background-color: transparent; font-size: 14px;&quot;&gt;&lt;font face=&quot;Times New Roman&quot;&gt;Идентификация студентов&lt;/font&gt;&lt;/span&gt;&lt;/div&gt;" style="text;whiteSpace=wrap;html=1;" parent="1" vertex="1">
          <mxGeometry x="60" y="158" width="160" height="40" as="geometry" />
        </mxCell>
        <mxCell id="xwWvTB3SmUjanC1Ceygi-17" value="&lt;font face=&quot;Times New Roman&quot;&gt;&lt;span style=&quot;font-size: 14px;&quot;&gt;Справка об академической задолженности&lt;/span&gt;&lt;/font&gt;" style="text;whiteSpace=wrap;html=1;align=center;" parent="1" vertex="1">
          <mxGeometry x="-147" y="500" width="180" height="40" as="geometry" />
        </mxCell>
        <mxCell id="xwWvTB3SmUjanC1Ceygi-21" value="&lt;span style=&quot;font-family: &amp;quot;Times New Roman&amp;quot;; font-size: 14px;&quot;&gt;Заявление на продление сроков ликвидации задолженности&lt;/span&gt;" style="text;html=1;align=center;verticalAlign=middle;whiteSpace=wrap;rounded=0;" parent="1" vertex="1">
          <mxGeometry x="440" y="510" width="170" height="30" as="geometry" />
        </mxCell>
        <mxCell id="xwWvTB3SmUjanC1Ceygi-22" value="&lt;span style=&quot;font-family: &amp;quot;Times New Roman&amp;quot;; font-size: 14px; text-align: start; caret-color: rgb(51, 144, 236); white-space-collapse: preserve; background-color: rgb(255, 255, 255);&quot;&gt;Ведомость о системе академической задолженности для студентов с ИОМ&lt;/span&gt;" style="text;html=1;align=center;verticalAlign=middle;whiteSpace=wrap;rounded=0;" parent="1" vertex="1">
          <mxGeometry x="580" y="584" width="180" height="30" as="geometry" />
        </mxCell>
        <mxCell id="xwWvTB3SmUjanC1Ceygi-23" value="&lt;font style=&quot;font-size: 14px;&quot; face=&quot;Times New Roman&quot;&gt;Ведомость о системе академической задолженности&lt;/font&gt;" style="text;html=1;align=center;verticalAlign=middle;whiteSpace=wrap;rounded=0;" parent="1" vertex="1">
          <mxGeometry x="710" y="430" width="210" height="30" as="geometry" />
        </mxCell>
        <mxCell id="SZ57jk1cy83poXKxdZqZ-2" style="edgeStyle=orthogonalEdgeStyle;rounded=0;orthogonalLoop=1;jettySize=auto;html=1;entryX=0.619;entryY=0;entryDx=0;entryDy=0;entryPerimeter=0;" parent="1" source="xwWvTB3SmUjanC1Ceygi-3" target="xwWvTB3SmUjanC1Ceygi-9" edge="1">
          <mxGeometry relative="1" as="geometry" />
        </mxCell>
        <mxCell id="fnJGCV2OGsMbJMiHRyRS-1" value="&lt;div style=&quot;text-align: center;&quot;&gt;&lt;span style=&quot;background-color: transparent; text-align: left; font-size: 14px;&quot;&gt;&lt;font face=&quot;Times New Roman&quot;&gt;Идентификация&lt;/font&gt;&lt;/span&gt;&lt;font face=&quot;Times New Roman&quot;&gt;&lt;span style=&quot;font-size: 14px;&quot;&gt;&amp;nbsp;академических задолженностей&lt;/span&gt;&lt;/font&gt;&lt;/div&gt;" style="text;whiteSpace=wrap;html=1;" parent="1" vertex="1">
          <mxGeometry x="140" y="360" width="190" height="40" as="geometry" />
        </mxCell>
        <mxCell id="fnJGCV2OGsMbJMiHRyRS-2" value="&lt;font face=&quot;Times New Roman&quot;&gt;&lt;span style=&quot;font-size: 14px;&quot;&gt;Создается индивидуальный план ликвидации задолженностей (ИОМ)&lt;/span&gt;&lt;/font&gt;" style="rounded=0;whiteSpace=wrap;html=1;fillColor=light-dark(#ADADAD,var(--ge-dark-color, #121212));" parent="1" vertex="1">
          <mxGeometry x="340" y="580" width="210" height="110" as="geometry" />
        </mxCell>
        <mxCell id="fnJGCV2OGsMbJMiHRyRS-4" style="edgeStyle=orthogonalEdgeStyle;rounded=0;orthogonalLoop=1;jettySize=auto;html=1;entryX=0.005;entryY=0.445;entryDx=0;entryDy=0;entryPerimeter=0;" parent="1" source="fnJGCV2OGsMbJMiHRyRS-2" target="xwWvTB3SmUjanC1Ceygi-9" edge="1">
          <mxGeometry relative="1" as="geometry" />
        </mxCell>
      </root>
    </mxGraphModel>
  </diagram>
</mxfile>
